<?xml version="1.0" encoding="utf-8"?>
<!-- Generator: Adobe Illustrator 22.0.1, SVG Export Plug-In . SVG Version: 6.00 Build 0)  -->
<svg version="1.1" id="Layer_1" xmlns="http://www.w3.org/2000/svg" xmlns:xlink="http://www.w3.org/1999/xlink" x="0px" y="0px"
	 viewBox="0 0 1366 768" style="enable-background:new 0 0 1366 768;" xml:space="preserve">
<style type="text/css">
	.st0{fill:#88F482;stroke:#000000;stroke-width:6;stroke-miterlimit:10;}
	.st1{fill:#FFFFFF;stroke:#000000;stroke-width:6;stroke-miterlimit:10;}
	.st2{fill:#FFFFFF;}
	.st3{fill:#8C8C8C;}
	.st4{fill:none;stroke:#000000;stroke-width:6;stroke-miterlimit:10;}
</style>
<g>
	<ellipse class="st0" cx="801" cy="428" rx="274.1" ry="274"/>
	<ellipse class="st1" cx="800.2" cy="426.5" rx="242.7" ry="243.5"/>
	<ellipse class="st0" cx="800.3" cy="426.5" rx="222.4" ry="223.1"/>
</g>
<g id="XMLID_1_">
	<g>
		<path class="st2" d="M840.2,370.8h0.3l25.2-25.8l0.3-0.3l23.8,25.8l0.3-104.4h36.3c7.7,0,13.8,10.1,14,22.6l-0.7,238.6h-3.5H684.8
			l2.8-242.4h0c0-6.4,2.7-12,6.8-15.4c5.9-2.2,12.3-3.4,19-3.4h127.1v0.4L840.2,370.8z"/>
		<path class="st2" d="M936.3,527.3v0.7c-22.7,29.3-0.2,52-0.4,52H685.1h-0.3c-23.5-9.1-31.5-17.9-31.8-25.6v-0.1l0-1l0-0.1
			c1-15.2,31.8-26,31.8-26H936.3z"/>
		<polygon class="st3" points="866,344.7 865.7,344.9 840.6,370.8 840.2,370.8 840.6,266.4 840.6,266 890.2,266 889.8,370.4 		"/>
		<path class="st2" d="M687.5,284.9l-2.8,242.4c0,0-30.7,10.8-31.8,26l3.8-235.6c3.2-22.4,17.9-40.9,37.6-48.2
			C690.3,272.9,687.6,278.5,687.5,284.9L687.5,284.9z"/>
	</g>
	<g>
		<path class="st4" d="M936.3,528c-22.7,29.3-0.2,52-0.4,52"/>
		<polyline class="st4" points="940.1,580 935.9,580 685.1,580 		"/>
		<path class="st4" d="M653,553.2c1-15.2,31.8-26,31.8-26"/>
		<path class="st4" d="M653,554.3c0-0.4,0-0.7,0-1"/>
		<path class="st4" d="M684.8,580c-23.5-9.1-31.5-17.9-31.8-25.6"/>
		<polyline class="st4" points="939.8,527.3 940.4,288.6 940.5,286.3 		"/>
		<polyline class="st4" points="684.8,527.3 687.5,284.9 687.6,281.4 		"/>
		<path class="st4" d="M940.5,289c0-0.1,0-0.3,0-0.4c-0.1-12.6-6.3-22.6-14-22.6"/>
		<path class="st4" d="M687.6,284.9c0-6.4,2.7-12,6.8-15.4c2.6-2.2,5.8-3.4,9.3-3.4"/>
		<polyline class="st4" points="703.7,266 713.4,266 840.6,266 890.2,266 926.5,266 		"/>
		<polyline class="st4" points="684.8,527.3 936.3,527.3 939.8,527.3 940.1,527.3 940.5,527.3 		"/>
		<polyline class="st4" points="653,554.8 653,554.4 653,554.3 653,553.3 653,553.2 656.8,317.6 656.8,314.2 		"/>
		<path class="st4" d="M656.1,326.8c0-3.1,0.2-6.2,0.6-9.1c3.2-22.4,17.9-40.9,37.6-48.2c5.9-2.2,12.3-3.4,19-3.4"/>
		<polyline class="st4" points="890.2,266 889.8,370.4 889.8,372.5 		"/>
		<polyline class="st4" points="840.6,266.4 840.2,370.8 840.2,371.8 		"/>
		<line class="st4" x1="840.6" y1="370.8" x2="865.7" y2="344.9"/>
		<polyline class="st4" points="890.2,370.8 889.8,370.4 866,344.7 864.7,343.2 		"/>
	</g>
</g>
</svg>
