<?xml version="1.0" encoding="utf-8"?>
<!-- Generator: Adobe Illustrator 21.1.0, SVG Export Plug-In . SVG Version: 6.00 Build 0)  -->
<svg version="1.1" id="Layer_1" xmlns="http://www.w3.org/2000/svg" xmlns:xlink="http://www.w3.org/1999/xlink" x="0px" y="0px"
	 viewBox="0 0 845 390" style="enable-background:new 0 0 845 390;" xml:space="preserve">
<style type="text/css">
	.st0{fill:none;stroke:#000000;stroke-width:6;stroke-miterlimit:10;}
</style>
<line class="st0" x1="612.5" y1="342.5" x2="812.5" y2="347.5"/>
<path class="st0" d="M812.5,347.5c26-6,32-12,8-54"/>
<path class="st0" d="M660.5,201.5c35,41,138,57,160,92"/>
<path class="st0" d="M608.5,267.5c22-20,45.5-46.5,52.5-75.5"/>
<path class="st0" d="M614,267c-4-3-23-7-30-13"/>
<path class="st0" d="M586.5,255.5c-21,9-15,28-17,32"/>
<path class="st0" d="M609.5,266.5c14,5,14.3,21,32,21"/>
<path class="st0" d="M663.5,192.5c-38-12-43-31-75-41"/>
<path class="st0" d="M592.5,151.5c25.9-21.1,56.9-37.1,97-70"/>
<path class="st0" d="M689.5,81.5c0-1.1-8.5-2-19-2"/>
<path class="st0" d="M647.5,27.5c6,28,18,48,23,52"/>
<path class="st0" d="M442.5,62.5c3-40,86-72,205-35"/>
<path class="st0" d="M227.5,45.5c5,5,191-71,215,17"/>
<path class="st0" d="M229.5,45.5c-10,8-11,19-23,22"/>
<path class="st0" d="M206.5,67.5c0,0-7.6,0-17,0"/>
<path class="st0" d="M254.5,143.5c-21-27-55-55-65-76"/>
<path class="st0" d="M243.5,153.5"/>
<path class="st0" d="M243.5,145.5"/>
<path class="st0" d="M199.5,176.5c11-2,38-17,55-29"/>
<path class="st0" d="M199.5,176.5c17,39,44,57,46,77"/>
<path class="st0" d="M202.5,183.5c-50,39-157,67-184,101"/>
<path class="st0" d="M54.5,346.5c-47-13-56-11-36-62"/>
<path class="st0" d="M54.5,346.5c0,1.7,116-2,254,3"/>
<path class="st0" d="M245.5,253.5c0-2.2,5-2,7-4"/>
<path class="st0" d="M244.5,249.5c-15,8-35,21-66,35"/>
<path class="st0" d="M291.5,290.5c0,2-57,15-113-6"/>
<path class="st0" d="M641.5,287.5c0,1.7-16.1,3-36,3"/>
<line class="st0" x1="306.5" y1="349.5" x2="319.5" y2="375.5"/>
<line class="st0" x1="607" y1="373.5" x2="317" y2="377.5"/>
<path class="st0" d="M605.5,290.5c16,12,4,83,2,83"/>
<path class="st0" d="M550.5,287.5c0,1.7,29-3,55,3"/>
<path class="st0" d="M550.5,287.5c-2.1-22.6-5.6-44-5-40"/>
<path class="st0" d="M537.5,233.5c3,7,5,12,8,14"/>
<path class="st0" d="M537.5,233.5c8-6,35-10,60-26"/>
<path class="st0" d="M597.5,207.5c-3-30-11-51-9-56"/>
<path class="st0" d="M588.5,151.5c0-2.8-25.5-5-57-5"/>
<path class="st0" d="M529.5,104.5c0,23.2,0.9,42,2,42"/>
<path class="st0" d="M586.5,109.5c0,1-25.5-5-57-5"/>
<path class="st0" d="M586.5,109.5"/>
<path class="st0" d="M580.5,104.5"/>
<path class="st0" d="M586.5,109.5c-6-12-1.1-28,0-28"/>
<path class="st0" d="M582.5,76.5"/>
<path class="st0" d="M582.5,83.5"/>
<path class="st0" d="M586.5,81.5c-17-4-105-13-226-23"/>
<path class="st0" d="M360.5,58.5c0,15.5-1.3,28-3,28"/>
<path class="st0" d="M358.5,86.5c9,1,39,5,84,7"/>
<path class="st0" d="M442.5,93.5c0,3.9-86.8,7-194,7"/>
<path class="st0" d="M360.5,58.5c-19,19-26,29-39,41"/>
<path class="st0" d="M358.5,86.5c-5,5-7,7-13,13"/>
<path class="st0" d="M442.5,93.5c0-0.6,30.9-1,69-1"/>
<path class="st0" d="M529.5,104.5c2-9-9-11-18-12"/>
<path class="st0" d="M248.5,100.5c10,29,4.6,53,4,53"/>
<path class="st0" d="M252.5,153.5c9,0,13.8-2,42-2"/>
<path class="st0" d="M303.5,146.5"/>
<path class="st0" d="M294.5,151.5"/>
<path class="st0" d="M308,146.5c0,0,97.5,0,223.5,0"/>
<path class="st0" d="M307.5,146.5c4,30-1.1,65,0,65"/>
<path class="st0" d="M303.5,211.5c0,2.8,133.9-3,292-3"/>
<path class="st0" d="M537.5,233.5c-7-12-10-20-14-25"/>
<path class="st0" d="M307.5,211.5c-6,1-18,3-55,7"/>
<path class="st0" d="M252.5,218.5c5,33,0,63,0,63"/>
<path class="st0" d="M252.5,281.5c0-1.1,121.3-2,281-2"/>
<path class="st0" d="M550.5,287.5c-5-1-9-4-17-8"/>
<path class="st0" d="M533.5,279.5c-5-37-10-67-10-71"/>
<path class="st0" d="M252.5,153.5c14,10,34,30,55,48"/>
<path class="st0" d="M531.5,135.5c10-4,29-13,55-26"/>
<path class="st0" d="M312.5,351.5c5-31,0-58,0-58"/>
<path class="st0" d="M550.5,287.5c0,0-102.4,0-229,0"/>
<path class="st0" d="M312.5,293.5c5,0,4-6,9-6"/>
<path class="st0" d="M291.5,290.5c0,0,11.2,0,25,0"/>
<path class="st0" d="M252.5,281.5c8,2,19,4,39,9"/>
<path class="st0" d="M206.5,67.5c0-2.8,68.9-5,154-5"/>
<path class="st0" d="M670.5,79.5c-21-3-95-11-206-23"/>
<path class="st0" d="M464.5,56.5c-7,2-10,2-13,8"/>
<path class="st0" d="M213.5,64.5c14,1,166-53,214-4"/>
<path class="st0" d="M668.5,78.5c-19-9-182-78-203-23"/>
<path class="st0" d="M321.5,376.5c14-41,4.5-86.5,0.5-88.5"/>
<path class="st0" d="M304.5,182.5"/>
<path class="st0" d="M294.5,151.5"/>
<path class="st0" d="M304.5,197.5"/>
<path class="st0" d="M304.5,182.5"/>
<path class="st0" d="M252.5,153.5"/>
<path class="st0" d="M243.5,145.5"/>
<path class="st0" d="M294.5,151.5c0,0,6.3,0,14,0"/>
<path class="st0" d="M641.5,287.5c0-1.1,58-8,117-2"/>
<path class="st0" d="M178.5,284.5c0,2.2-39-5-89,4"/>
</svg>
