<?xml version="1.0" encoding="iso-8859-1"?>
<!-- Generator: Adobe Illustrator 16.0.0, SVG Export Plug-In . SVG Version: 6.00 Build 0)  -->
<!DOCTYPE svg PUBLIC "-//W3C//DTD SVG 1.1//EN" "http://www.w3.org/Graphics/SVG/1.1/DTD/svg11.dtd">
<svg version="1.1" id="Layer_1" xmlns="http://www.w3.org/2000/svg" xmlns:xlink="http://www.w3.org/1999/xlink" x="0px" y="0px"
	 width="960px" height="560px" viewBox="0 0 960 560" style="enable-background:new 0 0 960 560;" xml:space="preserve">
<g>
	<defs>
		<rect id="SVGID_1_" x="-222.113" y="-136.479" width="1366" height="768"/>
	</defs>
	<clipPath id="SVGID_2_">
		<use xlink:href="#SVGID_1_"  style="overflow:visible;"/>
	</clipPath>
	<path style="clip-path:url(#SVGID_2_);fill:#88F482;" d="M478.384,18.521c146.685,0,265.597,118.868,265.597,265.5
		s-118.912,265.5-265.597,265.5c-146.685,0-265.597-118.868-265.597-265.5S331.699,18.521,478.384,18.521"/>
	
		<ellipse style="clip-path:url(#SVGID_2_);fill:none;stroke:#000000;stroke-width:6;stroke-miterlimit:10;" cx="478.384" cy="284.021" rx="265.597" ry="265.5"/>
	<path style="clip-path:url(#SVGID_2_);fill:#FFFFFF;" d="M477.608,46.622c129.882,0,235.171,105.637,235.171,235.946
		c0,130.31-105.289,235.946-235.171,235.946c-129.881,0-235.171-105.637-235.171-235.946
		C242.438,152.259,347.728,46.622,477.608,46.622"/>
	
		<ellipse style="clip-path:url(#SVGID_2_);fill:none;stroke:#000000;stroke-width:6;stroke-miterlimit:10;" cx="477.608" cy="282.568" rx="235.171" ry="235.946"/>
	<path style="clip-path:url(#SVGID_2_);fill:#88F482;" d="M477.705,66.389c119.018,0,215.501,96.787,215.501,216.179
		c0,119.392-96.483,216.179-215.501,216.179c-119.018,0-215.5-96.787-215.5-216.179C262.205,163.176,358.687,66.389,477.705,66.389"
		/>
	
		<ellipse style="clip-path:url(#SVGID_2_);fill:none;stroke:#000000;stroke-width:6;stroke-miterlimit:10;" cx="477.705" cy="282.568" rx="215.501" ry="216.179"/>
	<path style="clip-path:url(#SVGID_2_);fill:#AAAAAA;" d="M354.296,408.629c-4.962,0-9-4.037-9-9V277.5c0-4.962,4.038-9,9-9h29.805
		c4.962,0,9,4.038,9,9v122.129c0,4.963-4.038,9-9,9H354.296z"/>
	<path style="clip-path:url(#SVGID_2_);" d="M384.102,271.5c3.308,0,6,2.692,6,6v122.129c0,3.308-2.692,6-6,6h-29.806
		c-3.308,0-6-2.692-6-6V277.5c0-3.308,2.692-6,6-6H384.102 M384.102,265.5h-29.806c-6.6,0-12,5.4-12,12v122.129c0,6.6,5.4,12,12,12
		h29.806c6.6,0,12-5.4,12-12V277.5C396.102,270.9,390.701,265.5,384.102,265.5"/>
	<path style="clip-path:url(#SVGID_2_);fill:#AAAAAA;" d="M431.334,408.629c-4.961,0-9-4.037-9-9v-79.33c0-4.962,4.039-9,9-9h29.806
		c4.962,0,8.999,4.038,8.999,9v79.33c0,4.963-4.037,9-8.999,9H431.334z"/>
	<path style="clip-path:url(#SVGID_2_);" d="M461.139,314.3c3.309,0,6,2.691,6,6v79.329c0,3.309-2.691,6-6,6h-29.805
		c-3.309,0-6-2.691-6-6V320.3c0-3.309,2.691-6,6-6H461.139 M461.139,308.3h-29.805c-6.6,0-12,5.399-12,12v79.329c0,6.6,5.4,12,12,12
		h29.805c6.601,0,12-5.4,12-12V320.3C473.139,313.699,467.739,308.3,461.139,308.3"/>
	<path style="clip-path:url(#SVGID_2_);fill:#AAAAAA;" d="M503.482,408.629c-4.963,0-9-4.037-9-9V247.541c0-4.962,4.037-9,9-9
		h29.804c4.963,0,9,4.038,9,9v152.088c0,4.963-4.037,9-9,9H503.482z"/>
	<path style="clip-path:url(#SVGID_2_);" d="M533.286,241.541c3.309,0,6,2.691,6,6v152.088c0,3.308-2.691,6-6,6h-29.805
		c-3.309,0-6-2.692-6-6V247.541c0-3.309,2.691-6,6-6H533.286 M533.286,235.541h-29.805c-6.6,0-12,5.4-12,12v152.088
		c0,6.599,5.4,12,12,12h29.805c6.601,0,12-5.401,12-12V247.541C545.286,240.941,539.887,235.541,533.286,235.541"/>
	<path style="clip-path:url(#SVGID_2_);fill:#AAAAAA;" d="M573.795,408.629c-4.963,0-9-4.037-9-9V216.97c0-4.962,4.037-9,9-9h29.804
		c4.963,0,9,4.038,9,9v182.659c0,4.963-4.037,9-9,9H573.795z"/>
	<path style="clip-path:url(#SVGID_2_);" d="M603.599,210.97c3.309,0,6,2.692,6,6v182.659c0,3.309-2.691,6-6,6h-29.804
		c-3.309,0-6-2.691-6-6V216.97c0-3.308,2.691-6,6-6H603.599 M603.599,204.97h-29.804c-6.601,0-12,5.4-12,12v182.659
		c0,6.6,5.399,12,12,12h29.804c6.601,0,12-5.4,12-12V216.97C615.599,210.37,610.199,204.97,603.599,204.97"/>
	
		<line style="clip-path:url(#SVGID_2_);fill:none;stroke:#000000;stroke-width:6;stroke-miterlimit:10;" x1="304.694" y1="271.309" x2="394.563" y2="188.57"/>
	
		<line style="clip-path:url(#SVGID_2_);fill:none;stroke:#000000;stroke-width:6;stroke-miterlimit:10;" x1="393.961" y1="187.545" x2="450.822" y2="241.961"/>
	
		<line style="clip-path:url(#SVGID_2_);fill:none;stroke:#000000;stroke-width:6;stroke-miterlimit:10;" x1="450.822" y1="241.961" x2="588.391" y2="152.694"/>
	<g style="clip-path:url(#SVGID_2_);">
		<defs>
			<rect id="SVGID_3_" x="581.906" y="139.162" width="22.19" height="20.43"/>
		</defs>
		<clipPath id="SVGID_4_">
			<use xlink:href="#SVGID_3_"  style="overflow:visible;"/>
		</clipPath>
		<g style="clip-path:url(#SVGID_4_);">
			<defs>
				<rect id="SVGID_5_" x="581.906" y="139.162" width="22.19" height="20.43"/>
			</defs>
			<clipPath id="SVGID_6_">
				<use xlink:href="#SVGID_5_"  style="overflow:visible;"/>
			</clipPath>
			<polygon style="clip-path:url(#SVGID_6_);fill:#070707;" points="603.867,139.162 604.096,140.521 596.406,159.592 
				582.167,144.352 581.906,142.822 			"/>
		</g>
	</g>
	<polyline style="clip-path:url(#SVGID_2_);fill:none;stroke:#000000;stroke-width:6;stroke-miterlimit:10;" points="
		582.167,144.352 596.406,159.592 597.146,160.382 	"/>
	<polyline style="clip-path:url(#SVGID_2_);fill:none;stroke:#000000;stroke-width:6;stroke-miterlimit:10;" points="
		580.446,143.062 581.906,142.821 603.867,139.162 607.037,138.631 	"/>
	<polyline style="clip-path:url(#SVGID_2_);fill:none;stroke:#000000;stroke-width:6;stroke-miterlimit:10;" points="
		596.087,160.381 596.406,159.591 604.097,140.521 	"/>
</g>
</svg>
