<?xml version="1.0" encoding="utf-8"?>
<!-- Generator: Adobe Illustrator 21.1.0, SVG Export Plug-In . SVG Version: 6.00 Build 0)  -->
<svg version="1.1" id="Layer_1" xmlns="http://www.w3.org/2000/svg" xmlns:xlink="http://www.w3.org/1999/xlink" x="0px" y="0px"
	 viewBox="0 0 606 620" style="enable-background:new 0 0 606 620;" xml:space="preserve">
<style type="text/css">
	.st0{fill:#AAAAAA;}
	.st1{fill:#FFFFFF;}
	.st2{fill:none;stroke:#000000;stroke-width:6;stroke-miterlimit:10;}
	.st3{fill:#FFEC00;}
	.st4{fill:#EAD406;}
</style>
<g>
	<g id="XMLID_3_">
		<g>
			<path class="st0" d="M569.5,197.6V154l-38,19.9v43.5L569.5,197.6z M570.5,308.6l1-86.1l-0.3-0.6l-38.7,23.4l0.1,0.1l1,82.9
				L570.5,308.6z M591.5,108.5l1,293l-89,47l1-289L591.5,108.5z M579.5,370.5c0-17.1-11.9-31-26.5-31s-26.5,13.9-26.5,31
				s11.9,31,26.5,31S579.5,387.6,579.5,370.5z"/>
			<polygon class="st0" points="504.4,144.4 553.4,116 569.3,106.8 407.9,12.3 416.6,6.7 591.5,108.5 504.5,159.5 327.4,58 
				341.9,50.3 361.4,61.6 			"/>
			<ellipse class="st1" cx="553" cy="370.5" rx="26.5" ry="31"/>
			<polygon class="st1" points="571.2,221.9 571.5,222.5 570.5,308.6 533.5,328.4 532.5,245.5 532.4,245.4 			"/>
			<polygon class="st1" points="569.5,154 569.5,197.6 531.5,217.4 531.5,174 			"/>
			<polygon class="st0" points="415.3,37.9 405.5,42.2 406.5,13.3 407.9,12.3 569.3,106.8 553.4,116 552.5,114.5 415.5,38.5 			"/>
			<polygon class="st1" points="405.5,42.2 415.3,37.9 415.5,38.5 552.5,114.5 553.4,116 504.4,144.4 361.4,61.6 361.5,61.5 			"/>
			<path class="st0" d="M464.5,240.3l-0.9-54.8h0l-93-53l-1,53l-0.1,0.1L464.5,240.3z M504.5,159.5l-1,289l-177-101v-289l0.9-0.5
				L504.5,159.5z"/>
			<polygon class="st1" points="463.5,185.5 464.5,240.3 369.4,185.6 369.5,185.5 370.5,132.5 463.5,185.5 			"/>
		</g>
		<g>
			<polyline class="st2" points="326.5,57.5 326.5,58.5 326.5,347.5 326.5,350.5 			"/>
			<polyline class="st2" points="504.5,159.5 327.4,58 326.5,57.5 			"/>
			<line class="st2" x1="503.5" y1="448.5" x2="504.5" y2="159.5"/>
			<line class="st2" x1="326.5" y1="347.5" x2="503.5" y2="448.5"/>
			<line class="st2" x1="591.5" y1="108.5" x2="592.5" y2="401.5"/>
			<line class="st2" x1="503.5" y1="448.5" x2="592.5" y2="401.5"/>
			<line class="st2" x1="504.5" y1="159.5" x2="591.5" y2="108.5"/>
			<polyline class="st2" points="414.5,5.5 416.6,6.7 591.5,108.5 			"/>
			<polyline class="st2" points="324.5,59.5 326.5,58.5 327.4,58 341.9,50.3 343.5,49.5 			"/>
			<polyline class="st2" points="404.5,14.5 406.5,13.3 407.9,12.3 416.6,6.7 418.5,5.5 			"/>
			<polyline class="st2" points="405.5,43.5 405.5,42.2 406.5,13.3 406.5,11.5 			"/>
			<polyline class="st2" points="340.5,49.5 341.9,50.3 361.4,61.6 504.4,144.4 504.5,144.5 			"/>
			<polyline class="st2" points="571.5,105.5 569.3,106.8 553.4,116 504.4,144.4 502.5,145.5 			"/>
			<polyline class="st2" points="418.5,36.5 415.3,37.9 405.5,42.2 361.5,61.5 			"/>
			<polyline class="st2" points="406.5,11.5 407.9,12.3 569.3,106.8 570.5,107.5 			"/>
			<line class="st2" x1="552.5" y1="114.5" x2="415.5" y2="38.5"/>
			<polyline class="st2" points="530.5,246.5 532.4,245.4 571.2,221.9 573.5,220.5 			"/>
			<polyline class="st2" points="570.5,309.5 570.5,308.6 571.5,222.5 			"/>
			<polyline class="st2" points="531.5,329.5 533.5,328.4 570.5,308.6 572.5,307.5 			"/>
			<polyline class="st2" points="532.5,245.5 533.5,328.4 533.5,328.5 			"/>
			<polyline class="st2" points="530.8,174.3 531.5,174 569.5,154 570.2,153.7 			"/>
			<polyline class="st2" points="569.5,200.5 569.5,197.6 569.5,154 569.5,151.5 			"/>
			<polyline class="st2" points="529.5,218.5 531.5,217.4 569.5,197.6 571.5,196.5 			"/>
			<polyline class="st2" points="531.5,171.5 531.5,174 531.5,217.4 531.5,218.5 			"/>
			<line class="st2" x1="370.5" y1="132.5" x2="369.5" y2="185.5"/>
			<line class="st2" x1="463.5" y1="185.5" x2="370.5" y2="132.5"/>
			<polyline class="st2" points="464.5,241.5 464.5,240.3 463.5,185.5 463.5,182.5 			"/>
			<polyline class="st2" points="367.5,184.5 369.4,185.6 464.5,240.3 466.5,241.5 			"/>
			<ellipse class="st2" cx="553" cy="370.5" rx="26.5" ry="31"/>
		</g>
	</g>
</g>
<g>
	<g id="XMLID_2_">
		<g>
			<path class="st0" d="M462.5,253.6V210l-38,19.9v43.5L462.5,253.6z M463.5,364.6l1-86.1l-0.4-0.6l-38.7,23.4l0.1,0.1l1,82.9
				L463.5,364.6z M484.5,164.5l1,293l-89,47l1-289L484.5,164.5z M472.5,426.5c0-17.1-11.9-31-26.5-31s-26.5,13.9-26.5,31
				s11.9,31,26.5,31S472.5,443.6,472.5,426.5z"/>
			<polygon class="st0" points="397.4,200.4 446.4,172 462.3,162.8 300.9,68.3 309.6,62.7 484.5,164.5 397.5,215.5 220.4,114 
				234.9,106.3 254.4,117.6 			"/>
			<ellipse class="st1" cx="446" cy="426.5" rx="26.5" ry="31"/>
			<polygon class="st1" points="464.1,277.9 464.5,278.5 463.5,364.6 426.5,384.4 425.5,301.5 425.4,301.4 			"/>
			<polygon class="st1" points="462.5,210 462.5,253.6 424.5,273.5 424.5,230 			"/>
			<polygon class="st0" points="308.3,93.9 298.5,98.2 299.5,69.3 300.9,68.3 462.3,162.8 446.4,172 445.5,170.5 308.5,94.5 			"/>
			<polygon class="st1" points="298.5,98.2 308.3,93.9 308.5,94.5 445.5,170.5 446.4,172 397.4,200.4 254.4,117.6 254.5,117.5 			
				"/>
			<path class="st0" d="M357.5,296.3l-0.9-54.8h0l-93-53l-1,53l-0.1,0.1L357.5,296.3z M397.5,215.5l-1,289l-177-101v-289l0.9-0.5
				L397.5,215.5z"/>
			<polygon class="st1" points="356.5,241.5 357.5,296.3 262.4,241.6 262.5,241.5 263.5,188.5 356.5,241.5 			"/>
		</g>
		<g>
			<polyline class="st2" points="219.5,113.5 219.5,114.4 219.5,403.5 219.5,406.5 			"/>
			<polyline class="st2" points="397.5,215.5 220.4,114 219.5,113.5 			"/>
			<line class="st2" x1="396.5" y1="504.5" x2="397.5" y2="215.5"/>
			<line class="st2" x1="219.5" y1="403.5" x2="396.5" y2="504.5"/>
			<line class="st2" x1="484.5" y1="164.5" x2="485.5" y2="457.5"/>
			<line class="st2" x1="396.5" y1="504.5" x2="485.5" y2="457.5"/>
			<line class="st2" x1="397.5" y1="215.5" x2="484.5" y2="164.5"/>
			<polyline class="st2" points="307.5,61.5 309.6,62.7 484.5,164.5 			"/>
			<polyline class="st2" points="217.5,115.5 219.5,114.4 220.4,114 234.9,106.3 236.5,105.5 			"/>
			<polyline class="st2" points="297.5,70.5 299.5,69.3 300.9,68.3 309.6,62.7 311.5,61.5 			"/>
			<polyline class="st2" points="298.5,99.5 298.5,98.2 299.5,69.3 299.5,67.5 			"/>
			<polyline class="st2" points="233.5,105.5 234.9,106.3 254.4,117.6 397.4,200.4 397.5,200.5 			"/>
			<polyline class="st2" points="464.5,161.5 462.3,162.8 446.4,172 397.4,200.4 395.5,201.5 			"/>
			<polyline class="st2" points="311.5,92.5 308.3,93.9 298.5,98.2 254.5,117.5 			"/>
			<polyline class="st2" points="299.5,67.5 300.9,68.3 462.3,162.8 463.5,163.5 			"/>
			<line class="st2" x1="445.5" y1="170.5" x2="308.5" y2="94.5"/>
			<polyline class="st2" points="423.5,302.5 425.4,301.4 464.1,277.9 466.5,276.5 			"/>
			<polyline class="st2" points="463.5,365.5 463.5,364.6 464.5,278.5 			"/>
			<polyline class="st2" points="424.5,385.5 426.5,384.4 463.5,364.6 465.5,363.5 			"/>
			<polyline class="st2" points="425.5,301.5 426.5,384.4 426.5,384.5 			"/>
			<polyline class="st2" points="423.8,230.3 424.5,230 462.5,210 463.2,209.7 			"/>
			<polyline class="st2" points="462.5,256.5 462.5,253.6 462.5,210 462.5,207.5 			"/>
			<polyline class="st2" points="422.5,274.5 424.5,273.5 462.5,253.6 464.5,252.5 			"/>
			<polyline class="st2" points="424.5,227.5 424.5,230 424.5,273.5 424.5,274.5 			"/>
			<line class="st2" x1="263.5" y1="188.5" x2="262.5" y2="241.5"/>
			<line class="st2" x1="356.5" y1="241.5" x2="263.5" y2="188.5"/>
			<polyline class="st2" points="357.5,297.5 357.5,296.3 356.5,241.5 356.5,238.5 			"/>
			<polyline class="st2" points="260.5,240.5 262.4,241.6 357.5,296.3 359.5,297.5 			"/>
			<ellipse class="st2" cx="446" cy="426.5" rx="26.5" ry="31"/>
		</g>
	</g>
</g>
<g>
	<g id="XMLID_4_">
		<g>
			<path class="st3" d="M401.6,332.9l0.2-43.5l-38.1,19.8l-0.2,43.5L401.6,332.9z M403.2,357.3l-38.8,23.3l0.1,0.2l0.7,82.9
				l37.1-19.7l1.3-86.1L403.2,357.3z M423.9,244l0,293l-89.2,46.7l2-289L423.9,244z M411,505.9c0.1-17.1-11.8-31-26.4-31.1
				c-14.6-0.1-26.5,13.8-26.6,30.9c-0.1,17.1,11.8,31,26.4,31.1C399,536.9,410.9,523,411,505.9z"/>
			<polygon class="st3" points="401.7,242.2 240.7,147.1 249.4,141.6 423.9,244 336.7,294.7 160,192.5 174.6,184.9 194,196.3 
				336.6,279.6 385.8,251.3 			"/>
			
				<ellipse transform="matrix(3.506937e-03 -1 1 3.506937e-03 -122.6796 888.5504)" class="st1" cx="384.5" cy="505.8" rx="31" ry="26.5"/>
			<polygon class="st1" points="403.2,357.3 403.5,357.9 402.2,444 365.1,463.7 364.4,380.8 364.3,380.6 			"/>
			<polygon class="st1" points="401.8,289.4 401.6,332.9 363.5,352.7 363.7,309.2 			"/>
			<polygon class="st4" points="247.9,172.8 238.2,177 239.2,148.1 240.7,147.1 401.7,242.2 385.8,251.3 384.9,249.8 248.2,173.4 
							"/>
			<polygon class="st1" points="238.2,177 247.9,172.8 248.2,173.4 384.9,249.8 385.8,251.3 336.6,279.6 194,196.3 194.1,196.2 			
				"/>
			<path class="st3" d="M201.6,320.3l94.9,55.1l-0.7-54.8l0,0l-92.8-53.3l-1.2,53L201.6,320.3z M336.7,294.7l-2,289L158.1,482l1-289
				l0.9-0.5L336.7,294.7z"/>
			<polygon class="st1" points="295.7,320.5 296.4,375.4 201.6,320.3 201.6,320.2 202.8,267.2 295.6,320.5 			"/>
		</g>
		<g>
			<polyline class="st2" points="159.1,192 159.1,193 158.1,482 158.1,485 			"/>
			<polyline class="st2" points="336.7,294.7 160,192.5 159.1,192 			"/>
			<line class="st2" x1="334.7" y1="583.7" x2="336.7" y2="294.7"/>
			<line class="st2" x1="158.1" y1="482" x2="334.7" y2="583.7"/>
			<line class="st2" x1="423.9" y1="244" x2="423.9" y2="537"/>
			<line class="st2" x1="334.7" y1="583.7" x2="423.9" y2="537"/>
			<line class="st2" x1="336.7" y1="294.7" x2="423.9" y2="244"/>
			<polyline class="st2" points="247.3,140.3 249.4,141.6 423.9,244 			"/>
			<polyline class="st2" points="157.1,194 159.1,193 160,192.5 174.6,184.9 176.1,184.1 			"/>
			<polyline class="st2" points="237.2,149.3 239.2,148.1 240.7,147.1 249.4,141.6 251.3,140.4 			"/>
			<polyline class="st2" points="238.1,178.3 238.2,177 239.2,148.1 239.3,146.3 			"/>
			<polyline class="st2" points="173.1,184.1 174.6,184.9 194,196.3 336.6,279.6 336.8,279.7 			"/>
			<polyline class="st2" points="403.9,240.9 401.7,242.2 385.8,251.3 336.6,279.6 334.8,280.7 			"/>
			<polyline class="st2" points="251.2,171.4 247.9,172.8 238.2,177 194.1,196.2 			"/>
			<polyline class="st2" points="239.3,146.3 240.7,147.1 401.7,242.2 402.9,242.9 			"/>
			<line class="st2" x1="384.9" y1="249.8" x2="248.2" y2="173.4"/>
			<polyline class="st2" points="362.4,381.8 364.3,380.6 403.2,357.3 405.5,355.9 			"/>
			<polyline class="st2" points="402.2,444.9 402.2,444 403.5,357.9 			"/>
			<polyline class="st2" points="363.1,464.8 365.1,463.7 402.2,444 404.2,442.9 			"/>
			<polyline class="st2" points="364.4,380.8 365.1,463.7 365.1,463.8 			"/>
			<polyline class="st2" points="363,309.6 363.7,309.2 401.8,289.4 402.4,289.1 			"/>
			<polyline class="st2" points="401.6,335.9 401.6,332.9 401.8,289.4 401.8,286.9 			"/>
			<polyline class="st2" points="361.5,353.7 363.5,352.7 401.6,332.9 403.6,331.9 			"/>
			<polyline class="st2" points="363.7,306.8 363.7,309.2 363.5,352.7 363.5,353.8 			"/>
			<line class="st2" x1="202.8" y1="267.2" x2="201.6" y2="320.2"/>
			<line class="st2" x1="295.6" y1="320.5" x2="202.8" y2="267.2"/>
			<polyline class="st2" points="296.4,376.5 296.4,375.4 295.7,320.5 295.7,317.5 			"/>
			<polyline class="st2" points="199.6,319.2 201.6,320.3 296.4,375.4 298.4,376.5 			"/>
			
				<ellipse transform="matrix(3.506937e-03 -1 1 3.506937e-03 -122.6796 888.5504)" class="st2" cx="384.5" cy="505.8" rx="31" ry="26.5"/>
		</g>
	</g>
</g>
<g>
	<g id="XMLID_1_">
		<g>
			<path class="st0" d="M216.5,337v43.5l38-19.9V317L216.5,337z M218.5,491.4l37-19.9l1-86.1l-0.4-0.6l-38.7,23.4l0.1,0.1
				L218.5,491.4z M276.5,271.5l1,293l-89,47l1-289L276.5,271.5z M264.5,533.5c0-17.1-11.9-31-26.5-31s-26.5,13.9-26.5,31
				s11.9,31,26.5,31S264.5,550.6,264.5,533.5z"/>
			<polygon class="st0" points="189.4,307.4 238.4,279 254.3,269.8 92.9,175.3 101.6,169.7 276.5,271.5 189.5,322.5 12.4,221 
				26.9,213.3 46.4,224.6 			"/>
			<ellipse class="st1" cx="238" cy="533.5" rx="26.5" ry="31"/>
			<polygon class="st1" points="256.1,384.9 256.5,385.5 255.5,471.6 218.5,491.4 217.5,408.5 217.4,408.4 			"/>
			<polygon class="st1" points="254.5,317 254.5,360.5 216.5,380.5 216.5,337 			"/>
			<polygon class="st0" points="100.3,200.9 90.5,205.2 91.4,176.3 92.9,175.3 254.3,269.8 238.4,279 237.5,277.5 100.5,201.5 			
				"/>
			<polygon class="st1" points="90.5,205.2 100.3,200.9 100.5,201.5 237.5,277.5 238.4,279 189.4,307.4 46.4,224.6 46.5,224.5 			
				"/>
			<path class="st0" d="M54.4,348.6l95,54.7l-0.9-54.8h-0.1l-93-53l-1,53L54.4,348.6z M189.5,322.5l-1,289l-177-101v-289l0.9-0.5
				L189.5,322.5z"/>
			<polygon class="st1" points="148.6,348.5 149.5,403.3 54.4,348.6 54.5,348.5 55.5,295.5 148.5,348.5 			"/>
		</g>
		<g>
			<polyline class="st2" points="11.5,220.5 11.5,221.4 11.5,510.5 11.5,513.5 			"/>
			<polyline class="st2" points="189.5,322.5 12.4,221 11.5,220.5 			"/>
			<line class="st2" x1="188.5" y1="611.5" x2="189.5" y2="322.5"/>
			<line class="st2" x1="11.5" y1="510.5" x2="188.5" y2="611.5"/>
			<line class="st2" x1="276.5" y1="271.5" x2="277.5" y2="564.5"/>
			<line class="st2" x1="188.5" y1="611.5" x2="277.5" y2="564.5"/>
			<line class="st2" x1="189.5" y1="322.5" x2="276.5" y2="271.5"/>
			<polyline class="st2" points="99.5,168.5 101.6,169.7 276.5,271.5 			"/>
			<polyline class="st2" points="9.5,222.5 11.5,221.4 12.4,221 26.9,213.3 28.5,212.5 			"/>
			<polyline class="st2" points="89.5,177.5 91.4,176.3 92.9,175.3 101.6,169.7 103.5,168.5 			"/>
			<polyline class="st2" points="90.5,206.5 90.5,205.2 91.4,176.3 91.5,174.5 			"/>
			<polyline class="st2" points="25.5,212.5 26.9,213.3 46.4,224.6 189.4,307.4 189.5,307.5 			"/>
			<polyline class="st2" points="256.5,268.5 254.3,269.8 238.4,279 189.4,307.4 187.5,308.5 			"/>
			<polyline class="st2" points="103.5,199.5 100.3,200.9 90.5,205.2 46.5,224.5 			"/>
			<polyline class="st2" points="91.5,174.5 92.9,175.3 254.3,269.8 255.5,270.5 			"/>
			<line class="st2" x1="237.5" y1="277.5" x2="100.5" y2="201.5"/>
			<polyline class="st2" points="215.5,409.5 217.4,408.4 256.1,384.9 258.5,383.5 			"/>
			<polyline class="st2" points="255.5,472.5 255.5,471.6 256.5,385.5 			"/>
			<polyline class="st2" points="216.5,492.5 218.5,491.4 255.5,471.6 257.5,470.5 			"/>
			<polyline class="st2" points="217.5,408.5 218.5,491.4 218.5,491.5 			"/>
			<polyline class="st2" points="215.8,337.3 216.5,337 254.5,317 255.2,316.7 			"/>
			<polyline class="st2" points="254.5,363.5 254.5,360.5 254.5,317 254.5,314.5 			"/>
			<polyline class="st2" points="214.5,381.5 216.5,380.5 254.5,360.5 256.5,359.5 			"/>
			<polyline class="st2" points="216.5,334.5 216.5,337 216.5,380.5 216.5,381.5 			"/>
			<line class="st2" x1="55.5" y1="295.5" x2="54.5" y2="348.5"/>
			<line class="st2" x1="148.5" y1="348.5" x2="55.5" y2="295.5"/>
			<polyline class="st2" points="149.5,404.5 149.5,403.3 148.6,348.5 148.5,345.5 			"/>
			<polyline class="st2" points="52.5,347.5 54.4,348.6 149.5,403.3 151.5,404.5 			"/>
			<ellipse class="st2" cx="238" cy="533.5" rx="26.5" ry="31"/>
		</g>
	</g>
</g>
</svg>
