<?xml version="1.0" encoding="utf-8"?>
<!-- Generator: Adobe Illustrator 21.1.0, SVG Export Plug-In . SVG Version: 6.00 Build 0)  -->
<svg version="1.1" id="Layer_1" xmlns="http://www.w3.org/2000/svg" xmlns:xlink="http://www.w3.org/1999/xlink" x="0px" y="0px"
	 viewBox="0 0 364 509" style="enable-background:new 0 0 364 509;" xml:space="preserve">
<style type="text/css">
	.st0{fill:#FDD8A8;}
	.st1{fill:#F7931E;}
	.st2{fill:#FCEE21;}
	.st3{fill:#FF0000;}
	.st4{fill:#0000FF;}
</style>
<g>
	<path d="M324.5,377.8c0,4.9,0.2,9.2-0.1,13.4c-0.1,2.4-0.3,5.2-1.5,7c-3.4,4.9-2.2,9.5-1,14.8c4.1,17.9-3,38.5-21.5,42.7
		c-5.3,1.2-11.1,0.4-16.6,0.2c-4.1-0.1-8.2-1.4-12.2-1.1c-14,0.9-20.8,10.5-25.2,22.2c-2,5.3-2.7,11.2-3.6,16.9
		c-1.1,6.9-7.3,10-12.7,5.5c-8.5-7.2-16.5-15-24.6-22.5c-1-0.9-2-1.7-3-2.6c-10.5-9.2-21.1-18.3-31.6-27.5
		c-5.9-5.1-11.9-10.1-17.3-15.8c-2.2-2.3-3.9-6.1-3.9-9.3c-0.2-22-4.7-43-14.6-62.8c-3.2-6.3-7.2-12.2-10.3-18.6
		c-12.3-25.8-13-52.2-3.8-79c7.5-21.8,20.5-39.2,39.9-52.4c15.5-10.6,32.3-15.2,50.5-15.2c15.5,0,31.3-0.4,46.3,2.5
		c26.2,5,44,22.2,56.2,45.4c11.1,21.2,13.4,43.2,6.7,66.3c-2.1,7.3-0.4,14.5,3.7,20.9c4.6,7,9.2,14,14.2,20.8c4.4,6,7,12.2,3.3,19.2
		C338.4,375.1,332.8,378.4,324.5,377.8z M327.6,361.1c-4.1-5.7-7-10-10.1-14.2c-11.3-15-15.5-30.6-10.4-49.8
		c9.3-34.9-15.6-77.1-51.6-84.7c-20.5-4.3-41.5-4.3-61.9,0c-29.1,6.2-47.1,25.9-57.5,52.8c-7.3,18.9-8.3,38.4-1.4,57.7
		c2.6,7.3,5.7,14.6,9.8,21.2c13.5,21.8,18.8,45.7,20.5,70.8c0.1,1.9,0.5,4.3,1.7,5.6c3.2,3.6,6.8,6.8,10.4,10
		c10.6,9.4,21.4,18.6,32.1,27.9c0.7,0.6,1.3,1.3,2,1.9c6,5.5,12.1,10.9,18.6,16.8c4.9-13.9,10-26.4,24.5-33.4
		c-2.7-1.5-3.7-2.2-4.9-2.6c-7-2.7-14-5.2-20.9-8.1c-2.3-1-5.3-2.7-5.7-4.7c-0.7-2.9-0.6-7.5,1.2-9.1c2-1.9,6.8-2.6,9.5-1.6
		c18.1,6.8,36,14.3,54,21.4c9,3.6,18.5-1.7,19.6-11.3c0.5-4.6-0.1-9.7-1.3-14.2c-1.6-6.3-3-12.1,1.2-18.1c1.6-2.4,1.8-6,2-9.1
		c0.3-5.2,0-10.5,0.1-15.7c0.1-6.4,2.7-9.2,9.1-9.6C320.6,361,323.2,361.1,327.6,361.1z"/>
</g>
<path class="st0" d="M327.6,359.9c-4.1-5.7-7-10-10.1-14.2c-11.3-15-15.5-30.6-10.4-49.8c9.3-34.9-15.6-77.1-51.6-84.7
	c-20.5-4.3-41.5-4.3-61.9,0c-29.1,6.2-47.1,25.9-57.5,52.8c-7.3,18.9-8.3,38.4-1.4,57.7c2.6,7.3,5.7,14.6,9.8,21.2
	c13.5,21.8,18.8,45.7,20.5,70.8c0.1,1.9,0.5,4.3,1.7,5.6c3.2,3.6,6.8,6.8,10.4,10c10.6,9.4,21.4,18.6,32.1,27.9
	c0.7,0.6,1.3,1.3,2,1.9c6,5.5,12.1,10.9,18.6,16.8c4.9-13.9,10-26.4,24.5-33.4c-2.7-1.5-3.7-2.2-4.9-2.6c-7-2.7-14-5.2-20.9-8.1
	c-2.3-1-5.3-2.7-5.7-4.7c-0.7-2.9-0.6-7.5,1.2-9.1c2-1.9,6.8-2.6,9.5-1.6c18.1,6.8,36,14.3,54,21.4c9,3.6,18.5-1.7,19.6-11.3
	c0.5-4.6-0.1-9.7-1.3-14.2c-1.6-6.3-3-12.1,1.2-18.1c1.6-2.4,1.8-6,2-9.1c0.3-5.2,0-10.5,0.1-15.7c0.1-6.4,2.7-9.2,9.1-9.6
	C320.6,359.8,323.2,359.9,327.6,359.9z"/>
<g id="XMLID_1_">
	<g>
		<path d="M182.7,156.7c-0.1-0.1-0.3-0.2-0.4-0.4c-1-1.4-2.3-2.1-3.8-2.4c0,0-0.1-0.1-0.1-0.1c0,0-0.1-0.1-0.1-0.1
			c-0.1,0-0.1-0.1-0.1-0.1c-0.6-1.3-1.6-2.3-2.6-2.8c-0.6-1.6-1.6-2.7-2.8-3.3c-4.1-3.7-7.9-7.2-11.8-10.9
			c-10.9,13.4-25.2,16.1-35.6,7c-10.8-9.5-9.8-23.9,2.8-37.1c-4.1-3.7-8.1-7.4-12.2-11.2c-0.2,0.2-0.4,0.5-0.7,0.7
			c-0.5-1-1.1-1.8-1.9-2.3c-0.8-1.1-1.9-1.8-3.1-2.1c-0.4-0.3-0.9-0.6-1.4-0.8c-0.1-0.1-0.2-0.3-0.3-0.4c0.1-0.8,0-1.6-0.3-2.5
			c-0.1-0.3-0.2-0.6-0.3-0.8c8.6-9.4,17.2-18.7,25.9-28.1c1.5-1.6,4.4-2.8,6.7-2.9c2.9-0.1,3.8,2.6,4.3,5.3
			c1.2,6.5,6.2,10.2,12.4,9.3c5.7-0.8,10.2-5.8,10.4-11.6c0.2-6.1-3.8-10.6-10.2-11.3c-2.7-0.3-5.5-0.9-5.7-3.8
			c-0.2-2.2,0.7-5.2,2.2-6.9c7-8.1,14.3-15.8,21.5-23.6c3.3-3.5,6.2-3.7,9.6-0.6c21.5,19.7,43,39.5,64.5,59.3
			c3.5,3.2,3.5,6.1,0.1,9.9c-7.1,7.8-14.1,15.6-21.4,23.2c-1.6,1.6-4.7,3.1-6.6,2.7s-3.6-3.2-4.2-5.3c-1.8-6.3-6.3-9.8-12.4-9
			c-5.8,0.8-10.1,5.5-10.5,11.4c-0.4,6,3.6,10.3,10,11.6c2.2,0.4,5.1,1.9,5.7,3.7c0.6,1.8-0.6,5-2.1,6.8
			c-5.6,6.6-11.6,12.8-17.7,19.5c0.2,0.2,0.4,0.4,0.7,0.6c-0.6,0.4-1.1,0.9-1.6,1.5c-0.7,0.5-1.3,1.2-1.7,2
			c-0.2,0.1-0.4,0.2-0.6,0.3c-0.1,0-0.1,0.1-0.1,0.1c-0.1,0.1-0.3,0.2-0.4,0.3c-0.1,0-0.1,0.1-0.2,0.1c-0.1,0.1-0.2,0.2-0.4,0.3
			c0,0.1-0.1,0.1-0.1,0.1c-0.2,0.2-0.3,0.3-0.4,0.5c0,0,0,0,0,0c-0.1,0.2-0.2,0.4-0.3,0.5c0,0.1-0.1,0.1-0.1,0.2
			c-0.1,0.1-0.1,0.3-0.2,0.4c0,0.1-0.1,0.1-0.1,0.2c-0.1,0.1-0.1,0.3-0.1,0.5c0,0.1,0,0.1-0.1,0.2c0,0.2-0.1,0.4-0.1,0.7
			C183.8,155.8,183.2,156.2,182.7,156.7z M181.8,139.5c2.4-2.6,4.4-4.8,6.3-6.9c2-2.2,4-4.3,6.1-6.6c-13.8-8.8-13.9-24.6-6-34.6
			c4.2-5.3,9.8-8.3,16.3-9.1c8.8-1,15.6,2.6,20.8,9.3c4.3-4.7,8.3-9.1,12.4-13.5c-19.3-17.8-38.5-35.4-57.6-52.9
			c-4.3,4.7-8.4,9.1-12.5,13.6c8.8,5.5,12.8,13.4,10.8,23.9c-1.8,9.5-7.7,16-17,18.7c-10.4,3.1-18.7-0.3-25.1-8.6
			c-4,4.4-8,8.7-12.4,13.5c6.2,5.7,12.1,11.1,18.1,16.6c2,1.8,3.5,3.9,2.6,6.9c-0.9,3-3.4,3.5-5.8,4.6c-2.7,1.2-5.7,2.9-7.4,5.2
			c-3.2,4.3-2.8,9,0.1,13.2c2.5,3.7,7.1,5.2,11.7,4c4.8-1.3,8.1-4.8,9-10.2c0.5-2.7,1.2-5.1,4-6.2c3-1.2,5.1,0.2,7.1,2
			c4,3.7,8,7.4,12.1,11.1C177.5,135.5,179.5,137.4,181.8,139.5z"/>
		<path class="st1" d="M188.1,132.6c-1.9,2.1-3.9,4.2-6.3,6.9c-2.3-2.1-4.3-4-6.4-5.9c-4-3.7-8.1-7.4-12.1-11.1
			c-2-1.9-4.2-3.2-7.1-2c-2.8,1.1-3.6,3.5-4,6.2c-0.9,5.4-4.1,9-9,10.2c-4.6,1.2-9.2-0.3-11.7-4c-2.9-4.2-3.3-8.9-0.1-13.2
			c1.7-2.3,4.7-4,7.4-5.2c2.4-1.1,4.9-1.6,5.8-4.6c0.9-3.1-0.6-5.1-2.6-6.9c-6-5.4-11.9-10.9-18.1-16.6c4.4-4.8,8.4-9.1,12.4-13.5
			c6.4,8.3,14.7,11.7,25.1,8.6c9.3-2.7,15.2-9.3,17-18.7c2-10.5-2-18.4-10.8-23.9c4.1-4.5,8.2-8.9,12.5-13.6
			c19.1,17.6,38.3,35.1,57.6,52.9c-4,4.4-8.1,8.8-12.4,13.5c-5.2-6.7-12-10.3-20.8-9.3c-6.6,0.7-12.1,3.8-16.3,9.1
			c-8,10-7.8,25.8,6,34.6C192.1,128.3,190.1,130.5,188.1,132.6z"/>
	</g>
	<g>
	</g>
</g>
<g>
	<path d="M141.1,223c5.4-2.9,10.2-5.6,15.1-8.3c-11.7-15.7-4.2-30.8,5-36.1c12.2-7.2,25.3-1.6,34.1,15.1c2.7-1.4,5.3-2.9,8-4.4
		c3.8-2.1,7.6-4.3,11.5-6.2c3.9-1.9,6.5-0.9,8.8,3.3c5,9.1,10.1,18.2,14.8,27.4c1,2,1.3,5.1,0.6,7.2c-0.9,2.7-3.7,2.8-6.5,2.4
		c-5.2-0.9-9.2,1-11.6,5.6c-2.2,4.3-1.7,8.7,1.4,12.8c5.1,6.8,15.1,6.1,18.8-1.5c1.3-2.6,2.5-5.1,5.8-5c3.3,0.1,4.8,2.5,6.2,5.1
		c4.9,9,9.8,18,14.7,27c2.6,4.7,1.9,7.5-2.5,9.9c-35,19.2-70,38.3-105.1,57.3c-1.8,1-4.9,1-7,0.1c-2.8-1.2-2.8-4.3-2.5-7.2
		c0.5-5.4-1.9-9.9-6.5-12.4c-4.1-2.3-9.1-1.8-12.4,1c-3.6,3.3-5.2,9-2.8,13.7c1.3,2.6,4.2,4.4,6.3,6.6c1.6,1.7,3.6,3.5,4.2,5.5
		c0.8,2.8-1.2,4.7-3.6,5.9c-8.7,4.7-17.4,9.5-26.2,14.3c-4.2,2.3-6.9,1.3-9.4-3.2c-20.2-36.9-40.4-73.9-60.5-110.9
		c-1.1-2-1.2-5.1-0.6-7.2c0.9-2.8,3.7-2.8,6.4-2.4c6.6,1,11.6-2.6,12.8-8.7c1-5.6-2.3-11.5-7.6-13.5c-5.7-2.2-11.3,0.2-13.9,6
		c-1.1,2.5-2.6,4.9-5.4,4.2c-2.1-0.6-4.7-2.3-5.8-4.3c-5.4-9.2-10.4-18.6-15.4-28c-2.3-4.2-1.5-7.1,2.5-9.3c25.6-14,51.2-28,76.9-42
		c4.2-2.3,6.9-1.4,9.4,3.1c5.1,9.2,10.3,18.4,15,27.8c1,2,1.4,5.5,0.4,7.1c-1,1.6-4.2,2.4-6.4,2.3c-6.5-0.3-11.3,2.8-12.5,8.8
		c-1.1,5.8,2,11.4,7.4,13.6c5.6,2.3,10.9-0.1,14.2-5.8c1.1-1.9,3.5-4.2,5.3-4.2c1.9,0,4.6,2.2,5.8,4.2
		C132.8,207.4,136.8,215.1,141.1,223z M62.5,266.2c7.4-4,14.4-7.9,21.5-11.8c2.4-1.3,4.8-2.1,7.4-0.2c2.5,1.8,2.2,4.3,2.5,7
		c0.3,3,0.9,6.3,2.5,8.7c3,4.4,7.6,5.5,12.6,4.1c4.3-1.2,7.2-5,7.6-9.8c0.4-5-2-9.2-6.8-11.8c-2.4-1.3-4.4-2.8-4.6-5.8
		c-0.2-3.2,1.8-4.8,4.2-6.1c4.8-2.6,9.6-5.2,14.4-7.9c2.5-1.3,4.9-2.7,7.6-4.2c-1.7-3.1-3.1-5.7-4.5-8.2c-1.4-2.6-2.8-5.2-4.3-7.9
		c-12.7,10.2-27.8,5.3-34.7-5.5c-3.7-5.7-4.8-11.9-3.3-18.4c1.9-8.7,7.5-14,15.5-16.7c-3-5.6-5.9-10.8-8.8-16
		c-23.1,12.6-45.9,25.1-68.6,37.5c3,5.6,5.9,10.8,8.8,16.2c8.1-6.5,16.8-7.8,26.1-2.5c8.4,4.8,12.7,12.5,12.3,22.1
		c-0.4,10.9-6.3,17.6-16.2,21C56.6,255.4,59.4,260.6,62.5,266.2z M215.8,196c-7.4,4.1-14.5,7.9-21.6,11.8c-2.4,1.3-4.8,2.2-7.4,0.4
		c-2.7-1.9-2.7-4.5-2.5-7.3c0.5-6.4-3.5-11.8-9.3-13.1c-5.7-1.3-11.1,1.9-12.9,7.7c-1.8,5.8,0.5,11.1,6.5,14.2
		c2.4,1.2,4.5,2.7,4.7,5.7c0.2,3.2-1.7,4.9-4.1,6.2c-6.2,3.4-12.4,6.8-18.6,10.2c-1.1,0.6-2.2,1.4-3.2,2c3,5.5,5.7,10.5,8.5,15.5
		c14.4-8.6,28.2-5.8,35.4,7c7.3,13.1,2.3,26.3-12.9,34.1c2.9,5.3,5.8,10.7,8.8,16c23-12.6,45.9-25.1,68.7-37.5
		c-3-5.5-5.9-10.8-8.8-16.1c-14.1,8.8-27.6,6.3-35.2-6.5c-3.4-5.7-4.3-11.8-2.7-18.1c2.1-8.4,7.7-13.5,15.6-16.2
		C221.6,206.5,218.8,201.5,215.8,196z M122,247.5c9.2,14.6,7.1,29-4.8,35.9c-12.4,7.2-25.7,1.6-34.2-14.6c-4.8,2.6-9.7,5.3-14.5,7.9
		c13.3,24.4,26.5,48.5,39.7,72.7c5-2.7,9.8-5.4,14.6-8c-9.3-16.5-7.1-30.5,5.8-37.3c12.3-6.4,25.3-0.2,33.1,15.9
		c5-2.7,9.9-5.4,15.3-8.3c-4.2-7.7-8.3-15.1-12.4-22.6c-1.5-2.7-3-5.4-1.1-8.4c1.7-2.9,4.5-2.5,7.4-2.2c6.2,0.7,10.9-3,11.9-8.9
		c1-5.6-2.1-11.1-7.3-13.3c-5.4-2.3-11.3-0.1-13.9,5.3c-1.3,2.6-2.6,5-5.9,4.9c-3.4,0-4.8-2.6-6.2-5.2c-2.4-4.5-4.9-9-7.4-13.5
		c-1.6-2.9-3.1-5.7-4.8-8.8C131.9,242.1,127.1,244.7,122,247.5z"/>
	<path class="st2" d="M62.5,266.2c-3.1-5.7-5.9-10.9-8.8-16.1c9.9-3.4,15.8-10.1,16.2-21c0.4-9.7-3.9-17.3-12.3-22.1
		c-9.3-5.3-18-4-26.1,2.5c-2.9-5.3-5.8-10.6-8.8-16.2c22.8-12.4,45.6-24.9,68.6-37.5c2.9,5.2,5.7,10.5,8.8,16
		c-8,2.8-13.6,8.1-15.5,16.7c-1.4,6.4-0.3,12.7,3.3,18.4c6.9,10.7,21.9,15.7,34.7,5.5c1.5,2.7,2.9,5.3,4.3,7.9
		c1.4,2.5,2.8,5.1,4.5,8.2c-2.7,1.5-5.1,2.8-7.6,4.2c-4.8,2.6-9.6,5.3-14.4,7.9c-2.4,1.3-4.4,2.9-4.2,6.1c0.2,3,2.2,4.5,4.6,5.8
		c4.8,2.6,7.2,6.8,6.8,11.8c-0.3,4.7-3.3,8.6-7.6,9.8c-4.9,1.4-9.5,0.3-12.6-4.1c-1.6-2.4-2.2-5.7-2.5-8.7c-0.3-2.7,0-5.2-2.5-7
		c-2.6-1.9-5-1.1-7.4,0.2C77,258.4,69.9,262.2,62.5,266.2z"/>
	<path class="st3" d="M215.8,196c3,5.5,5.8,10.5,8.7,15.9c-7.9,2.7-13.5,7.8-15.6,16.2c-1.6,6.3-0.7,12.4,2.7,18.1
		c7.6,12.8,21.1,15.3,35.2,6.5c2.9,5.3,5.8,10.6,8.8,16.1c-22.8,12.5-45.6,24.9-68.7,37.5c-2.9-5.4-5.8-10.7-8.8-16
		c15.3-7.7,20.3-21,12.9-34.1c-7.2-12.8-21-15.7-35.4-7c-2.7-5-5.5-10-8.5-15.5c1-0.6,2.1-1.4,3.2-2c6.2-3.4,12.4-6.8,18.6-10.2
		c2.4-1.3,4.4-2.9,4.1-6.2c-0.2-3-2.2-4.5-4.7-5.7c-6-3-8.3-8.3-6.5-14.2c1.8-5.8,7.2-9,12.9-7.7c5.8,1.3,9.8,6.7,9.3,13.1
		c-0.2,2.9-0.2,5.5,2.5,7.3c2.7,1.8,5,0.9,7.4-0.4C201.3,203.9,208.4,200,215.8,196z"/>
	<path class="st4" d="M122,247.5c5.1-2.8,10-5.4,15.2-8.3c1.7,3.1,3.2,5.9,4.8,8.8c2.5,4.5,4.9,9,7.4,13.5c1.4,2.6,2.8,5.2,6.2,5.2
		c3.3,0,4.6-2.3,5.9-4.9c2.6-5.5,8.5-7.6,13.9-5.3c5.3,2.2,8.3,7.8,7.3,13.3c-1.1,6-5.8,9.6-11.9,8.9c-2.9-0.3-5.6-0.7-7.4,2.2
		c-1.8,3-0.3,5.7,1.1,8.4c4.1,7.5,8.2,14.9,12.4,22.6c-5.3,2.9-10.3,5.6-15.3,8.3c-7.8-16.1-20.8-22.3-33.1-15.9
		c-12.9,6.7-15.2,20.8-5.8,37.3c-4.8,2.6-9.6,5.2-14.6,8c-13.2-24.2-26.4-48.3-39.7-72.7c4.9-2.7,9.7-5.3,14.5-7.9
		c8.5,16.2,21.8,21.8,34.2,14.6C129.1,276.6,131.1,262.2,122,247.5z"/>
</g>
</svg>
