<?xml version="1.0" encoding="utf-8"?>
<!-- Generator: Adobe Illustrator 22.0.1, SVG Export Plug-In . SVG Version: 6.00 Build 0)  -->
<svg version="1.1" id="Layer_1" xmlns="http://www.w3.org/2000/svg" xmlns:xlink="http://www.w3.org/1999/xlink" x="0px" y="0px"
	 viewBox="0 0 1366 768" style="enable-background:new 0 0 1366 768;" xml:space="preserve">
<style type="text/css">
	.st0{fill:#88F482;stroke:#000000;stroke-width:6;stroke-miterlimit:10;}
	.st1{fill:#FFFFFF;stroke:#000000;stroke-width:6;stroke-miterlimit:10;}
	.st2{fill:#F9F562;stroke:#020202;stroke-width:10;stroke-miterlimit:10;}
	.st3{fill:#AAAAAA;stroke:#020202;stroke-width:10;stroke-miterlimit:10;}
	.st4{stroke:#020202;stroke-miterlimit:10;}
	.st5{fill:none;stroke:#020202;stroke-width:10;stroke-miterlimit:10;}
	.st6{fill:#F9F562;}
	.st7{fill:#88F482;}
</style>
<ellipse class="st0" cx="683" cy="374" rx="274.1" ry="274"/>
<ellipse class="st1" cx="682.2" cy="372.5" rx="242.7" ry="243.5"/>
<ellipse class="st0" cx="682.3" cy="372.5" rx="222.4" ry="223.1"/>
<ellipse class="st2" cx="682.5" cy="317" rx="112" ry="112.5"/>
<path class="st3" d="M736,494H621c-6.6,0-12-5.4-12-12v-15.5c0-6.6,5.4-12,12-12h115c6.6,0,12,5.4,12,12V482
	C748,488.6,742.6,494,736,494z"/>
<path class="st4" d="M720.5,520.5h-83c-6.6,0-12-5.4-12-12v-6c0-6.6,5.4-12,12-12h83c6.6,0,12,5.4,12,12v6
	C732.5,515.1,727.1,520.5,720.5,520.5z"/>
<path class="st5" d="M610.5,460.5c8-32-0.4-58-1-58"/>
<path class="st5" d="M746.7,460.5c-12.3-29.5,0.7-53.5,1.5-53.5"/>
<rect x="616" y="392" class="st6" width="123" height="57"/>
<g>
	<g id="XMLID_1_">
		<g>
			<polygon class="st7" points="763.5,224.8 794.5,265.5 701.5,369.5 646.5,324.5 680.5,283.5 700.5,303.5 			"/>
		</g>
		<g>
		</g>
	</g>
</g>
</svg>
