<?xml version="1.0" encoding="utf-8"?>
<!-- Generator: Adobe Illustrator 22.0.1, SVG Export Plug-In . SVG Version: 6.00 Build 0)  -->
<svg version="1.1" id="Layer_1" xmlns="http://www.w3.org/2000/svg" xmlns:xlink="http://www.w3.org/1999/xlink" x="0px" y="0px"
	 viewBox="0 0 1366 768" style="enable-background:new 0 0 1366 768;" xml:space="preserve">
<style type="text/css">
	.st0{fill:#88F482;stroke:#000000;stroke-width:6;stroke-miterlimit:10;}
	.st1{fill:#FFFFFF;stroke:#000000;stroke-width:6;stroke-miterlimit:10;}
	.st2{fill:none;stroke:#000000;stroke-width:6;stroke-miterlimit:10;}
	.st3{stroke:#000000;stroke-width:6;stroke-miterlimit:10;}
	.st4{fill:#FFFFFF;}
	.st5{fill:#8C8C8C;}
</style>
<g>
	<ellipse class="st0" cx="582" cy="406" rx="274.1" ry="274"/>
	<ellipse class="st1" cx="581.2" cy="404.5" rx="242.7" ry="243.5"/>
	<ellipse class="st0" cx="581.3" cy="404.5" rx="222.4" ry="223.1"/>
</g>
<g>
	<line class="st2" x1="580.7" y1="277.2" x2="582.1" y2="561.5"/>
</g>
<line class="st2" x1="518.5" y1="559.3" x2="638.6" y2="559.3"/>
<circle class="st3" cx="581.2" cy="270.6" r="4.8"/>
<g>
	<g id="XMLID_2_">
		<g>
			<polygon class="st4" points="750.1,313.9 749.8,314.4 719.8,331.5 580.4,332.4 581.2,294.7 581.2,294.7 722.4,293.8 			"/>
		</g>
		<g>
			<polyline class="st2" points="578.9,294.7 581.2,294.7 722.4,293.8 722.7,293.8 			"/>
			<polyline class="st2" points="578.1,332.4 580.4,332.4 719.8,331.5 721.9,331.5 			"/>
			<polyline class="st2" points="722.4,293.8 750.1,313.9 751,314.5 			"/>
			<polyline class="st2" points="719.5,331.7 719.8,331.5 749.8,314.4 			"/>
			<polyline class="st2" points="580.4,332.4 580.4,332.4 581.2,294.7 			"/>
		</g>
	</g>
</g>
<g>
	<g id="XMLID_3_">
		<g>
			<polygon class="st4" points="687.8,357.8 708.4,372.4 708.1,372.8 685.9,385.2 582.5,385.8 583,358.4 583,358.4 			"/>
		</g>
		<g>
			<polyline class="st2" points="581.3,358.4 583,358.4 687.8,357.8 688,357.8 			"/>
			<polyline class="st2" points="580.7,385.8 582.5,385.8 685.9,385.2 687.4,385.2 			"/>
			<polyline class="st2" points="687.8,357.8 708.4,372.4 709,372.9 			"/>
			<polyline class="st2" points="685.6,385.3 685.9,385.2 708.1,372.8 			"/>
			<polyline class="st2" points="582.5,385.8 582.5,385.8 583,358.4 			"/>
		</g>
	</g>
</g>
<g>
	<g id="XMLID_1_">
		<g>
			<polygon class="st5" points="579.7,317.4 580.4,352.5 457.5,351.7 431,335.8 430.7,335.3 455.2,316.6 579.7,317.4 			"/>
		</g>
		<g>
			<polyline class="st2" points="581.8,317.4 579.7,317.4 455.2,316.6 455,316.6 			"/>
			<polyline class="st2" points="582.5,352.5 580.4,352.5 457.5,351.7 455.7,351.7 			"/>
			<polyline class="st2" points="455.2,316.6 430.7,335.3 430,335.9 			"/>
			<polyline class="st2" points="457.8,351.9 457.5,351.7 431,335.8 			"/>
			<polyline class="st2" points="580.4,352.5 580.4,352.5 579.7,317.4 			"/>
		</g>
	</g>
</g>
</svg>
