<?xml version="1.0" encoding="utf-8"?>
<!-- Generator: Adobe Illustrator 21.1.0, SVG Export Plug-In . SVG Version: 6.00 Build 0)  -->
<svg version="1.1" id="Layer_1" xmlns="http://www.w3.org/2000/svg" xmlns:xlink="http://www.w3.org/1999/xlink" x="0px" y="0px"
	 viewBox="0 0 542 663" style="enable-background:new 0 0 542 663;" xml:space="preserve">
<style type="text/css">
	.st0{fill:#BB9167;}
	.st1{fill:none;stroke:#020202;stroke-width:8;stroke-miterlimit:10;}
	.st2{fill:#EAA432;}
	.st3{fill:#FFEC00;stroke:#020202;stroke-width:8;stroke-miterlimit:10;}
	.st4{fill:#FFEC00;}
	.st5{fill:none;stroke:#000000;stroke-width:8;stroke-miterlimit:10;}
	.st6{fill:#070707;}
	.st7{fill:#FFFFFF;stroke:#070707;stroke-width:8;stroke-miterlimit:10;}
	.st8{fill:none;stroke:#070707;stroke-width:8;stroke-miterlimit:10;}
	.st9{fill:none;stroke:#0C0C0C;stroke-width:8;stroke-miterlimit:10;}
	.st10{fill:#898889;}
</style>
<g>
	<g id="XMLID_5_">
		<g>
			<path class="st0" d="M174.9,575.1l-20.5,30.2C153.9,604.9,163.1,591.4,174.9,575.1z"/>
			<path class="st0" d="M154.5,605.3L47.7,640.8L9.1,612.7l6.4-108.9L36,473.7c0,0,62.2,45.4,139,101.5
				C163.1,591.4,153.9,604.9,154.5,605.3z"/>
		</g>
		<g>
			<path class="st1" d="M36,473.7c0,0,62.2,45.4,139,101.5"/>
			<path class="st1" d="M174.9,575.1c-11.9,16.3-21,29.8-20.5,30.2"/>
			<line class="st1" x1="47.7" y1="640.8" x2="154.5" y2="605.3"/>
			<line class="st1" x1="9.1" y1="612.7" x2="47.7" y2="640.8"/>
			<line class="st1" x1="15.5" y1="503.8" x2="9.1" y2="612.7"/>
			<line class="st1" x1="36" y1="473.7" x2="15.5" y2="503.8"/>
		</g>
	</g>
	<g id="XMLID_3_">
		<g>
			<path class="st2" d="M276.9,439.7l-2-1.7c0.1-0.2,0.3-0.4,0.4-0.6C275.8,438.1,276.4,438.9,276.9,439.7z"/>
			<path class="st2" d="M177,576.6l-0.8,0c0.1-0.1,0.2-0.2,0.2-0.3C176.6,576.4,176.8,576.5,177,576.6z"/>
			<path class="st2" d="M176.2,576.6c-0.4,0.6-0.8,1.1-1.2,1.7L176.2,576.6L176.2,576.6z"/>
			<path class="st2" d="M176.4,576.3c-0.1,0.1-0.2,0.2-0.2,0.3l0,0L176.4,576.3C176.4,576.2,176.4,576.2,176.4,576.3z"/>
			<path class="st2" d="M176.4,576.3C176.4,576.2,176.4,576.2,176.4,576.3l98.1-138.6l0.3,0.3C267,450.7,226.4,507.8,176.4,576.3z"
				/>
			<path class="st0" d="M176.4,576.2l-0.2,0.4l-53.6-2.1c0.8-1,1.4-2,1.9-3C135.6,561,157.7,562.8,176.4,576.2z"/>
			<path class="st2" d="M274.6,437.7l-98.1,138.6c-18.7-13.4-40.8-15.2-51.9-4.8c7.6-14.6-5.1-34.3-12.4-42.3l0.9,0
				c-0.9-0.7-1.8-1.3-2.8-1.9c0,0,0,0,0,0c-0.5-0.4-0.9-0.8-1.3-1.1l0.1,0.3c-16.3-9.8-35.5-8.9-45.5,2.4
				c7.3-39.7-19-48.1-28.7-56.8c54.7-74.9,98.6-137.5,103.9-147.8c0.6,1.3,3.4,3.2,8.1,5.9L274.6,437.7z"/>
			<path class="st2" d="M274.9,437.9l-0.3-0.3l0.5-0.7c0.1,0.1,0.2,0.2,0.2,0.3C275.2,437.5,275,437.7,274.9,437.9z"/>
			<path class="st2" d="M275.3,437.3c-0.1-0.1-0.2-0.2-0.2-0.3l1.2-1.7C276.4,435.4,276,436.1,275.3,437.3z"/>
			<path class="st2" d="M275,437l-0.5,0.7L146.7,330.1C168.6,343,229.9,373.8,275,437z"/>
			<path class="st2" d="M124.5,571.4c-0.5,1-1.2,2.1-1.9,3l-0.7,0C122.6,573.3,123.5,572.3,124.5,571.4z"/>
			<path class="st0" d="M122.5,574.5c-0.2,0.3-0.4,0.6-0.6,0.8l-12.2-46.1l2.4-0.1c7.3,8,20,27.7,12.4,42.3c-1,0.9-1.9,1.9-2.7,3
				L122.5,574.5z"/>
			<path class="st2" d="M112.9,529.1l-0.9,0c-0.7-0.7-1.3-1.4-1.9-1.9C111.1,527.8,112,528.4,112.9,529.1z"/>
			<path class="st2" d="M112,529.1l-2.4,0.1l-0.7-2.7c0.4,0.2,0.8,0.5,1.2,0.7c0,0,0,0,0,0C110.7,527.7,111.3,528.4,112,529.1z"/>
			<path class="st0" d="M108.9,526.5l0.7,2.7l-46.5,1.5c0.1-0.6,0.2-1.2,0.3-1.9c0,0,0,0,0,0C73.5,517.6,92.6,516.7,108.9,526.5z"/>
			<path class="st2" d="M110.1,527.2c-0.4-0.2-0.8-0.5-1.2-0.7l-0.1-0.3C109.2,526.4,109.6,526.7,110.1,527.2z"/>
			<path class="st2" d="M63.1,530.7c-0.1,0.3-0.1,0.5-0.2,0.8l-0.4-0.8L63.1,530.7z"/>
			<path class="st2" d="M63.1,530.7l-0.5,0l-0.2-0.5c0.4-0.5,0.7-0.9,1.1-1.4C63.4,529.5,63.2,530.1,63.1,530.7z"/>
			<path class="st2" d="M62.6,530.7l-0.7,0c0.1-0.2,0.3-0.4,0.4-0.5L62.6,530.7z"/>
			<path class="st0" d="M63.5,528.8C63.5,528.9,63.5,528.9,63.5,528.8c-0.4,0.4-0.8,0.9-1.1,1.4l-27.5-58.1
				C44.4,480.8,70.7,489.1,63.5,528.8z"/>
			<path class="st2" d="M139,323.6l7.7,6.5c-4.6-2.7-7.5-4.6-8.1-5.9C138.8,324,138.9,323.8,139,323.6z"/>
			<path class="st2" d="M34.8,472.1l103.8-148.5c-0.1,0.2-0.1,0.4,0.1,0.7C133.4,334.6,89.5,397.2,34.8,472.1z"/>
			<path class="st2" d="M139,323.6c-0.1,0.2-0.2,0.4-0.3,0.6c-0.1-0.3-0.1-0.5-0.1-0.7l0.1-0.1L139,323.6z"/>
			<path class="st2" d="M139,323.6l-0.3-0.2l0.4-0.6C139.3,322.8,139.2,323.1,139,323.6z"/>
			<path class="st2" d="M138.7,323.4l-0.1,0.1C138.6,323.5,138.7,323.4,138.7,323.4L138.7,323.4z"/>
		</g>
		<g>
			<path class="st1" d="M63.1,530.7c-0.1,0.3-0.1,0.5-0.2,0.8"/>
			<path class="st1" d="M34.8,472.1c9.6,8.7,35.9,17,28.7,56.8"/>
			<path class="st1" d="M110.1,527.2c0.9,0.6,1.9,1.2,2.8,1.9"/>
			<path class="st1" d="M61.9,530.7c0.1-0.2,0.3-0.4,0.4-0.5c0.4-0.5,0.7-0.9,1.1-1.4c0,0,0,0,0,0c10-11.2,29.1-12.2,45.5-2.4"/>
			<path class="st1" d="M122.5,574.5c-0.2,0.3-0.4,0.6-0.6,0.8"/>
			<path class="st1" d="M108.9,526.1c0.4,0.3,0.8,0.6,1.3,1.1c0,0,0,0,0,0c0.6,0.5,1.2,1.2,1.9,1.9c7.3,8,20,27.7,12.4,42.3"/>
			<path class="st1" d="M176.4,576.3c0.2,0.1,0.3,0.2,0.5,0.4"/>
			<path class="st1" d="M121.8,574.4c0.8-1.1,1.7-2.1,2.7-3c11.2-10.4,33.2-8.6,51.9,4.8"/>
			<path class="st1" d="M139,323.6c0.2-0.5,0.3-0.8,0.2-0.9"/>
			<path class="st1" d="M34.8,472.1c54.7-74.9,98.6-137.5,103.9-147.8"/>
			<path class="st1" d="M275.3,437.3c0.8-1.3,1.1-2,1-2"/>
			<path class="st1" d="M175,578.3c0.4-0.6,0.8-1.1,1.2-1.7c0.1-0.1,0.2-0.2,0.2-0.3c49.9-68.4,90.6-125.5,98.4-138.3"/>
			<path class="st1" d="M138.7,323.4c0,0.1-0.1,0.1-0.1,0.2c-0.1,0.2-0.1,0.4,0.1,0.7c0.6,1.3,3.4,3.2,8.1,5.9
				C168.6,343,229.9,373.8,275,437c0.1,0.1,0.2,0.2,0.2,0.3c0.6,0.8,1.1,1.6,1.7,2.4"/>
		</g>
	</g>
	
		<ellipse transform="matrix(0.5897 -0.8077 0.8077 0.5897 12.7708 367.9485)" class="st3" cx="368.5" cy="171.4" rx="162.6" ry="161.9"/>
	<path class="st1" d="M174.1,287.6c31.8-26.5,42.5-59.2,41.9-59.6"/>
	<path class="st1" d="M312.3,388.5c9.4-39,40.3-53.8,41.2-53.1"/>
	
		<rect x="194.5" y="260.9" transform="matrix(0.8077 0.5897 -0.5897 0.8077 227.2028 -103.1476)" class="st4" width="154.5" height="71.6"/>
	<line class="st5" x1="229.8" y1="310.4" x2="310.9" y2="196.2"/>
	<line class="st5" x1="270.1" y1="341.4" x2="352.1" y2="227.1"/>
	<path class="st5" d="M352,227.4c11.4-20.8,36.2-20.2,40.9-4.1"/>
	<path class="st5" d="M393,222.7c7.9,20.6-21,36.8-34.5,22.3"/>
	<path class="st5" d="M365.3,250.5c0,0-33.1-24.2-74-54.1"/>
	<path class="st5" d="M310.5,197.1c16.3-17.2,8.2-40.6-8.5-40.2"/>
	<path class="st5" d="M303.1,156.9c-22-1.2-28.7,31.4-10.9,39.7"/>
	<g id="XMLID_2_">
		<g>
			<polygon class="st6" points="56.2,637.9 6.6,654.4 9.5,605.4 9.8,605.4 56.2,637.7 			"/>
		</g>
		<g>
			<polyline class="st5" points="154.5,605.3 56.2,637.9 6.6,654.4 			"/>
			<polyline class="st5" points="15.5,503.8 9.5,605.4 6.6,654.4 			"/>
			<line class="st5" x1="9.8" y1="605.4" x2="56.2" y2="637.7"/>
		</g>
	</g>
	<line class="st5" x1="6.8" y1="652.5" x2="7.7" y2="657"/>
	<line class="st7" x1="151.2" y1="607.6" x2="174.9" y2="575.1"/>
	<line class="st8" x1="196.2" y1="354.3" x2="79" y2="519.1"/>
	<line class="st8" x1="234.4" y1="391.5" x2="123.8" y2="547.2"/>
	<line class="st9" x1="13" y1="505.1" x2="36" y2="473.7"/>
	<g id="XMLID_4_">
		<g>
			<path class="st10" d="M288.3,417.3c5,11.8-11,18.9-12.9,18.2c-58.3-76-134.7-110-136.2-111.9c0-1.5,2.6-12.5,12.4-11.4
				c1.9-0.8,14.9-7,19-26.3l1.7-0.6c-1.7-5.2-1.4-10.5,2.3-13.1c8.2,3.5,102.8,44.7,147.7,110.2l-0.1,0.1c5.7,10.2-4.8,9.7-14.1,4.4
				l2.8,2.8c-13.4,14.3-21.3,28-22,27.5L288.3,417.3z"/>
		</g>
		<g>
			<path class="st1" d="M173.9,271.9c0,0,0.2,0.1,0.6,0.2c8.2,3.5,102.8,44.7,147.7,110.2c0.4,0.6,0.8,1.2,1.3,1.9"/>
			<path class="st1" d="M322.1,382.5c5.7,10.2-4.8,9.7-14.1,4.4c-2.3-1.3-4.5-2.9-6.4-4.6"/>
			<path class="st1" d="M310.7,389.7c-13.4,14.3-21.3,28-22,27.5"/>
			<path class="st1" d="M281.3,408.7c3.6,3.1,5.8,6,6.9,8.6c5,11.8-11,18.9-12.9,18.2"/>
			<path class="st1" d="M174.9,271.9c-0.1,0.1-0.3,0.2-0.4,0.3c-3.7,2.6-4,7.9-2.3,13.1c2,6.1,6.7,11.9,11.8,12.7"/>
			<path class="st1" d="M170.6,285.8c-4.2,19.3-17.2,25.5-19,26.3c-0.1,0.1-0.2,0.1-0.2,0.1"/>
			<path class="st1" d="M166.8,320.4c-6.4-5.5-11.4-7.8-15.2-8.3c-9.8-1.1-12.4,9.9-12.4,11.4"/>
			<path class="st1" d="M139.2,323.5c1.5,1.9,77.9,35.9,136.2,111.9"/>
		</g>
	</g>
</g>
</svg>
