<?xml version="1.0" encoding="iso-8859-1"?>
<!-- Generator: Adobe Illustrator 16.0.0, SVG Export Plug-In . SVG Version: 6.00 Build 0)  -->
<!DOCTYPE svg PUBLIC "-//W3C//DTD SVG 1.1//EN" "http://www.w3.org/Graphics/SVG/1.1/DTD/svg11.dtd">
<svg version="1.1" id="Layer_2" xmlns="http://www.w3.org/2000/svg" xmlns:xlink="http://www.w3.org/1999/xlink" x="0px" y="0px"
	 width="960px" height="560px" viewBox="0 0 960 560" style="enable-background:new 0 0 960 560;" xml:space="preserve">
<g>
	<path style="fill:#88F482;" d="M759.328,284.293c0,150.498-122.028,272.5-272.56,272.5c-150.529,0-272.559-122.002-272.559-272.5
		c0-150.499,122.029-272.501,272.559-272.501C637.3,11.792,759.328,133.794,759.328,284.293"/>
	
		<ellipse style="fill:none;stroke:#000000;stroke-width:6;stroke-miterlimit:10;" cx="486.769" cy="284.293" rx="272.559" ry="272.5"/>
	<path style="fill:#FFFFFF;" d="M727.32,282.846c0,133.732-108.058,242.143-241.354,242.143
		c-133.294,0-241.353-108.41-241.353-242.143c0-133.73,108.058-242.142,241.353-242.142
		C619.263,40.704,727.32,149.115,727.32,282.846"/>
	
		<ellipse style="fill:none;stroke:#000000;stroke-width:6;stroke-miterlimit:10;" cx="485.967" cy="282.846" rx="241.354" ry="242.143"/>
	<path style="fill:#88F482;" d="M707.286,282.846c0,122.555-99.025,221.904-221.181,221.904c-122.154,0-221.18-99.35-221.18-221.904
		c0-122.554,99.026-221.902,221.18-221.902C608.261,60.943,707.286,160.292,707.286,282.846"/>
	
		<ellipse style="fill:none;stroke:#000000;stroke-width:6;stroke-miterlimit:10;" cx="486.106" cy="282.846" rx="221.18" ry="221.904"/>
	<path style="fill:#AAAAAA;" d="M322.881,362.641h-15.174c-6.6,0-12-5.4-12-12v-80.465c0-6.599,5.4-12,12-12h15.174
		c6.6,0,12,5.401,12,12v80.465C334.881,357.24,329.481,362.641,322.881,362.641"/>
	<path style="fill:none;stroke:#070707;stroke-miterlimit:10;" d="M322.881,362.641h-15.174c-6.6,0-12-5.4-12-12v-80.465
		c0-6.599,5.4-12,12-12h15.174c6.6,0,12,5.401,12,12v80.465C334.881,357.24,329.481,362.641,322.881,362.641z"/>
	<g>
		<g>
			<path style="fill:#AAAAAA;" d="M528.05,215.483c-15.745,9.188-27.923,30.453-31.002,59.95
				c12.969-9.388,29.071,3.133,25.938,8.947c11.82-5.689,20.646,6.186,19.752,13.822c17.511-1.293,24.309,21.566,2.165,26.879v0.445
				H434.431c-20.13-13.861-3.133-30.857,6.262-26.836c0.446-8.496,11.181-22.812,26.837-16.098
				c-3.134-4.027,10.282-13.868,18.783-8.054c2.233-34.438-8.804-61.716-19.683-61.716c-55.902,4.914-43.38-47.861-59.93-60.83
				c17.443,4.028,93.475,4.921,69.771,52.775c1.341,8.502,16.103,23.608,16.103,52.775c4.921-30.858,30.858-42.486,28.179-52.328
				l-0.282-0.089c20.336-67.146,78.643-18.061,86.595-21.58c-25.353,31.82-57.042,44.775-77.818,31.958L528.05,215.483z"/>
			<rect x="406.7" y="151.994" style="fill:none;" width="200.365" height="173.535"/>
		</g>
		<rect x="406.7" y="151.994" style="fill:none;" width="200.365" height="173.535"/>
	</g>
	<polyline style="fill:none;stroke:#000000;stroke-miterlimit:10;" points="434.431,325.527 544.902,325.527 545.349,325.527 	"/>
	<path style="fill:none;stroke:#000000;stroke-miterlimit:10;" d="M544.902,325.082c22.144-5.312,15.346-28.172-2.165-26.879
		c-0.172,0.006-0.351,0.02-0.523,0.041"/>
	<path style="fill:none;stroke:#000000;stroke-miterlimit:10;" d="M542.668,298.689c0.027-0.158,0.056-0.322,0.069-0.486
		c0.894-7.637-7.932-19.512-19.752-13.822"/>
	<path style="fill:none;stroke:#000000;stroke-miterlimit:10;" d="M522.985,284.381c3.134-5.813-12.969-18.335-25.937-8.947"/>
	<path style="fill:none;stroke:#000000;stroke-miterlimit:10;" d="M434.431,325.527c-20.13-13.861-3.134-30.857,6.261-26.836"/>
	<path style="fill:none;stroke:#000000;stroke-miterlimit:10;" d="M440.692,298.689c0.446-8.494,11.182-22.81,26.837-16.096"/>
	<path style="fill:none;stroke:#000000;stroke-miterlimit:10;" d="M467.53,282.594c-3.134-4.026,10.282-13.869,18.783-8.055"/>
	<path style="fill:none;stroke:#000000;stroke-miterlimit:10;" d="M497.048,275.433c3.079-29.497,15.257-50.761,31.002-59.95
		c0.248-0.144,0.495-0.289,0.75-0.426"/>
	<path style="fill:none;stroke:#000000;stroke-miterlimit:10;" d="M607.072,183.539c0.274-0.351,0.55-0.701,0.824-1.051
		c0.027-0.028,0.048-0.055,0.068-0.083"/>
	<path style="fill:none;stroke:#000000;stroke-miterlimit:10;" d="M529.246,215.504c20.776,12.817,52.466-0.138,77.818-31.958"/>
	<path style="fill:none;stroke:#000000;stroke-miterlimit:10;" d="M607.965,181.835c0,0.24-0.021,0.46-0.068,0.653
		c-0.117,0.522-0.398,0.866-0.824,1.051l-0.008,0.007c-7.951,3.519-66.259-45.565-86.595,21.58
		c-0.055,0.179-0.109,0.357-0.165,0.536"/>
	<path style="fill:none;stroke:#000000;stroke-miterlimit:10;" d="M492.573,257.543c4.921-30.858,30.857-42.486,28.179-52.328"/>
	<path style="fill:none;stroke:#000000;stroke-miterlimit:10;" d="M486.312,274.54c2.233-34.438-8.804-61.716-19.683-61.716"/>
	<path style="fill:none;stroke:#000000;stroke-miterlimit:10;" d="M466.629,212.823c-55.902,4.914-43.38-47.861-59.929-60.83"/>
	<path style="fill:none;stroke:#000000;stroke-miterlimit:10;" d="M406.7,151.994c17.443,4.027,93.475,4.921,69.771,52.775"/>
	<path style="fill:none;stroke:#000000;stroke-miterlimit:10;" d="M492.573,257.543c0-29.167-14.762-44.273-16.103-52.775"/>
	<g>
		<g>
			<path style="fill:#FFFFFF;" d="M666.829,302.85c9.622-4.125,23.367,8.248,18.557,17.18L666.829,302.85z"/>
			<path style="fill:#FFFFFF;" d="M559.616,292.195c22.68,16.666,0,33.332,0,33.332v-32.988V292.195z"/>
			<path style="fill:#FFFFFF;" d="M477.117,380.502c-0.295-0.15-0.495-0.254-0.591-0.289l31.201-0.734
				c-0.392,0.275-0.79,0.535-1.182,0.777C492.938,388.797,480.113,382.064,477.117,380.502"/>
			<path style="fill:#FFFFFF;" d="M476.52,380.215c-0.041-0.016-0.062-0.016-0.062,0H476.52z M559.616,325.527l107.213-22.678
				l18.557,17.18l-178.688,60.48l-0.151-0.254c0.392-0.242,0.79-0.502,1.182-0.777l-31.201,0.736
				c0.096,0.033,0.296,0.137,0.591,0.287l-142.236-28.17v-84.671l132.985,25.222c-0.082-0.115-0.165-0.232-0.254-0.344h92.004
				V325.527z"/>
			<path style="fill:#FFFFFF;" d="M476.52,380.213h-0.062C476.457,380.199,476.479,380.199,476.52,380.213"/>
			<path style="fill:#FFFFFF;" d="M467.612,292.539c0.089,0.109,0.172,0.227,0.254,0.344L334.881,267.66
				C334.881,267.66,438.039,252.066,467.612,292.539"/>
			<rect x="334.881" y="264.707" style="fill:none;" width="351.496" height="119.793"/>
		</g>
		<rect x="334.881" y="264.707" style="fill:none;" width="351.496" height="119.793"/>
	</g>
	<path style="fill:none;stroke:#070707;stroke-miterlimit:10;" d="M334.881,267.66c0,0,103.158-15.594,132.731,24.879
		c0.09,0.111,0.172,0.227,0.255,0.344"/>
	<polyline style="fill:none;stroke:#070707;stroke-miterlimit:10;" points="466.492,292.539 467.612,292.539 559.616,292.539 	"/>
	<path style="fill:none;stroke:#070707;stroke-miterlimit:10;" d="M559.616,292.195c22.68,16.666,0,33.332,0,33.332"/>
	<polyline style="fill:none;stroke:#070707;stroke-miterlimit:10;" points="559.96,325.527 559.616,325.527 454.121,325.527 	"/>
	<line style="fill:none;stroke:#070707;stroke-miterlimit:10;" x1="334.881" y1="352.332" x2="477.117" y2="380.502"/>
	<path style="fill:none;stroke:#070707;stroke-miterlimit:10;" d="M476.526,380.213c0.096,0.035,0.296,0.139,0.591,0.289
		c2.996,1.561,15.82,8.295,29.429-0.246c0.392-0.242,0.79-0.502,1.182-0.777"/>
	<path style="fill:none;stroke:#070707;stroke-miterlimit:10;" d="M476.458,380.213c0-0.014,0.021-0.014,0.062,0"/>
	<line style="fill:none;stroke:#070707;stroke-miterlimit:10;" x1="476.526" y1="380.213" x2="476.519" y2="380.213"/>
	<line style="fill:none;stroke:#070707;stroke-miterlimit:10;" x1="506.697" y1="380.51" x2="685.386" y2="320.031"/>
	<path style="fill:none;stroke:#070707;stroke-miterlimit:10;" d="M685.386,320.029c4.811-8.934-8.936-21.305-18.557-17.18"/>
	<line style="fill:none;stroke:#070707;stroke-miterlimit:10;" x1="666.829" y1="302.85" x2="559.616" y2="325.527"/>
	<polyline style="fill:none;stroke:#070707;stroke-miterlimit:10;" points="334.881,352.332 334.881,267.66 334.881,267.11 	"/>
	<rect x="-206.708" y="-81.208" style="fill:none;" width="1366" height="768.001"/>
</g>
</svg>
