<?xml version="1.0" encoding="utf-8"?>
<!-- Generator: Adobe Illustrator 22.0.1, SVG Export Plug-In . SVG Version: 6.00 Build 0)  -->
<svg version="1.1" id="Layer_1" xmlns="http://www.w3.org/2000/svg" xmlns:xlink="http://www.w3.org/1999/xlink" x="0px" y="0px"
	 viewBox="0 0 1366 768" style="enable-background:new 0 0 1366 768;" xml:space="preserve">
<style type="text/css">
	.st0{fill:#88F482;stroke:#000000;stroke-width:6;stroke-miterlimit:10;}
	.st1{fill:#FFFFFF;stroke:#000000;stroke-width:6;stroke-miterlimit:10;}
	.st2{fill:#FFFFFF;stroke:#050505;stroke-width:6;stroke-miterlimit:10;}
	.st3{fill:#FFFFFF;}
	.st4{fill:none;stroke:#050505;stroke-width:6;stroke-miterlimit:10;}
	.st5{fill:#777777;stroke:#050505;stroke-width:6;stroke-miterlimit:10;}
</style>
<g>
	<ellipse class="st0" cx="683" cy="384" rx="274.1" ry="274"/>
	<ellipse class="st1" cx="682.2" cy="382.5" rx="242.7" ry="243.5"/>
	<ellipse class="st0" cx="682.3" cy="382.5" rx="222.4" ry="223.1"/>
</g>
<path class="st2" d="M810.3,338.2c-24.7,20.9-83.7,40.9-101.7,19.1c-18-21.8,11.9-77.2,36.5-98.1c24.7-20.9,59.2-20.1,77.3,1.7
	S835,317.3,810.3,338.2z"/>
<g id="XMLID_1_">
	<g>
		<path class="st3" d="M801.6,454c0.6-3.1-0.2-6.5-2.5-9L636,270.9c-1.8-1.9-4.1-2.9-6.5-3.1l0.1-1h41.9l137.7,146.9l-7.1,40.5
			L801.6,454z"/>
		<path class="st3" d="M520.1,368.3l101.7-97.8c2.1-2.1,5-3,7.7-2.7c2.4,0.2,4.7,1.2,6.5,3.1L799.1,445c2.3,2.5,3.2,5.9,2.5,9
			c-0.4,2-1.4,3.9-2.9,5.4L697,557.1c-4,3.8-10.4,3.7-14.2-0.4L519.7,382.7C515.9,378.6,516.1,372.2,520.1,368.3z"/>
	</g>
	<g>
		<path class="st4" d="M801.6,454c-0.4,2-1.4,3.9-2.9,5.4L697,557.1c-4,3.8-10.4,3.7-14.2-0.4L519.7,382.7c-3.8-4-3.6-10.5,0.4-14.4
			l101.7-97.8c2.1-2.1,5-3,7.7-2.7c2.4,0.2,4.7,1.2,6.5,3.1L799.1,445C801.4,447.5,802.2,450.9,801.6,454z"/>
		<line class="st4" x1="629.5" y1="266.7" x2="671.4" y2="266.7"/>
		<polyline class="st4" points="801.8,455.4 802,454.1 809.1,413.6 		"/>
		<line class="st4" x1="671.4" y1="266.7" x2="809.1" y2="413.6"/>
	</g>
</g>
<polygon class="st5" points="653.4,307.5 550.5,399.6 541.4,389.2 644.3,297.1 "/>
<polygon class="st5" points="679.5,352.4 584.1,437.7 574.4,426.6 669.8,341.2 "/>
<polygon class="st5" points="718.3,375.5 615.3,467.8 606.6,457.9 709.7,365.6 "/>
<polygon class="st5" points="727.3,430.8 646.7,503 638.4,493.5 719,421.4 "/>
<polygon class="st5" points="766.6,442.8 669.2,529.9 660.3,519.7 757.6,432.5 "/>
</svg>
